<svg xmlns="http://www.w3.org/2000/svg" viewBox="0 0 70 75"><path d="M3.5 52.7c.1.6.7.7 1.2.9 2.4-1 3.9-2.8 6-4.1.9-.8 2-1.4 2.9-2.2 1-.7 2-1.5 3.1-2 .9-.8 1.9-1.4 2.9-2 1.1-.7 2-1.5 3.1-2 .4-.5.9-.7 1.5-1 .5-.4.9-.8 1.6-1 .9-.8 2-1.4 3.1-2 4.1-2.7 8.6-4.9 12.8-7.4 2-1.4 4.1-2.6 5.8-4.2 1-.7 1.7-1.7 2.6-2.5.9-.8 2.2-1.2 2.3-2.8.1-1.2-.5-1.6-.9-2.3-.3-.9-.7-1.6-1-2.3-1.4-1.5-2.8-3-4.8-3.9-1.9-1.1-4.3-1.7-7-1.9h-4.8c-.2 0-.2.2-.4.1-3.5.2-6.4 1-9.2 1.9-1.4.5-2.8.9-3.9 1.6-1.5.4-2.5 1.2-3.8 1.8-.4-.3-.3-.9-.7-1.2-.2-.5-.8-.6-1.2-.9-1.6-.2-2.4.3-3.4.7-.2.5-.9.5-1 1 0 .3-.4.3-.4.6-.3.1 0 .7-.3.7-.1 1.5.2 2.6.9 3.4C5.5 24 1.2 29.2 0 37.4v4.8c.4 2.3.9 4.5 1.6 6.4.3 1 .8 1.9 1 2.9.2.5.6.8.9 1.2zm10.4-37.2c.2.5.3 1.5-.4 1.5-.5-.1-.6-.6-.6-1.2.3-.1.5-.3 1-.3zm-9.2 23c.5-1.6.6-3.4 1.5-4.7.4-1.6 1.2-2.8 1.6-4.4 1.5-2.6 3.2-4.8 5.1-7 1-.7 2-1.3 2.9-2 .4-.2.2-1.1.4-1.5.6-.3 1.3-.6 1.9-1.2.4-.1.8-.2 1-.6.4-.1.7-.2 1-.4 1.4-.6 2.8-1.2 4.2-1.7 3-1 6.1-1.9 9.9-2 .2 0 .3-.1.4-.1 5.8-.3 9.8 1.1 12.5 3.8.4.4.4 1.2.9 1.5.2.5.5 1 .6 1.6-.1.6-.9.7-1.3 1-.4.4-.6.9-1 1.2-.6.9-1.6 1.4-2.3 2.2-1.1.5-1.7 1.3-2.8 1.8-.7.7-1.8 1.1-2.6 1.7-1.9 1-3.8 2.1-5.7 3.2-1 .5-1.9 1.1-2.9 1.6-.9.5-1.7 1.2-2.8 1.6-.7.8-1.9 1.1-2.6 1.9-.6.2-.9.7-1.5.9-.4.3-.8.6-1.3.9-.8.7-1.7 1.3-2.6 1.9-.8.7-1.8 1.2-2.5 1.9-1.1.5-1.7 1.3-2.8 1.7-.7.8-1.8 1.1-2.5 1.9-1 .5-1.8 1.2-2.6 1.9-.5.3-.7.7-1.3.9-.3.4-.6.8-1.3.9-.5-1.7-1.3-3.2-1.8-5 .1-1.9.1-3.8.3-5.4zm3.6 5.6c.5.1.7-.3.9-.6.4-.1.1-.9.4-1v-2.9c.2-.7.2-1.4.3-2.2.5-.7.5-1.8 1-2.3.3-.8.6-1.6 1.2-2.2.2-.9.9-1.4 1.3-2 .4-.8 1.1-1.2 1.5-2 1.2-1 2.1-2.4 3.4-3.4.9-1.4 2.9-1.8 2.9-3.9-.3-.4-.6-.8-1.5-.7-.2 0-.3.2-.6.1-2.9 1.8-5.1 4.4-7.3 6.9-2 2.7-3.9 5.5-4.8 9.3.1.4-.1.5-.1.9v3.8c0 1 .2 2.2 1.4 2.2zm58.1 13.2c-3.5.1-6.4-.3-9.8-.3-3.3.1-6.2.5-9.3.7.8-.9 2-1.4 3.1-2 1-.7 2-1.5 3.1-2.2 2.1-2.1 4-4.3 4.5-7.9v-2.3c-.2-.8-.3-1.8-.7-2.5-.2-.9-.9-1.4-1.5-1.9-1.6.1-2.5-.5-4.1-.3-6.4 1-9.6 5.2-12.5 9.6-1.9-2.7-4.2-5.1-7.9-6.1-2.6-.4-5.7-.1-7 1.3 0 .3-.1.4-.3.4-.4 1.1-.3 2.6-.3 4.1.3 1.7.9 3 1.5 4.4.3.4.7.6.9 1.2.9.8 1.8 1.7 2.8 2.5.5.3.9.8 1.6 1 .2.2.5.4.9.4.1.3.8.2.4.6-5.4-.5-11.5-.2-17.4-.3-.6.1-1.6-.2-1.9.1-1.2.1-2.8-.2-3.8.1h-4c-.4.2-1.2.2-1.7.3-.5.2-1 .4-1 1 .1.4.4.7.9.9.4.2 1.1 0 1.5.3 1.2 0 2.4 0 3.5.1h2.3c1.3 1 1.9 2.6 2.9 3.8.6.2 1.2.5 1.9.7.1 0 .3 0 .3.1 5.1 0 10.3 0 15-.4 2.5.1 4.9-.2 7.1-.3 2.4-.1 4.6-.2 6.9-.3 4.8-.3 9.5-.6 15-.4.4-.7.6-1.5 1-2.2.1-.5.6-.5.6-1 .4-.1.3-.8.9-.7 1.7-.1 3.1.1 4.7.1.9-.1 1.3.2 2.2.1 1 .2 1-.7 1.5-1-.7-1.2-2.4-1.3-3.8-1.7zm-50.1 4.3c-.6-.1-.9.2-1.5.1-.5-.1-.7-.6-.9-1h2.3v.9h.1zm2.1-.3v-.6c.7-.1 1.7-.3 2 .3-.3.4-1.5.6-2 .3zm3.8-.2v-.4c.4-.1 1.7.1 2.6 0-.6.4-2 .5-2.6.4zm14.8-8c-.3.3-.4-.2-.6-.4-.3-.1-.4-.5-.6-.7-.3-.5-.8-.8-1.2-1.3-1-.7-1.4-1.9-3.1-1.9-.6.1-.9.4-1 1-.1.9.6 1.2 1 1.6.4.5.8.9 1.3 1.3.2.7.8.9 1 1.6.5.3.6 1.1 1 1.5-.3.4-1-.2-1.3-.3-.5-.1-.8-.4-1.3-.4-.8-.8-1.9-1.3-2.8-2-1.7-1.8-3.1-4-3.1-7.6v-.3c.1 0 .1-.1.3-.1h2.9c2.3.4 3.7 1.5 5 2.9.6.6 1.3 1.3 1.8 2.2.2.4.5 1 .6 1.5.2.3.4.8.1 1.4zm4.3-2.3c.3-.8.8-1.4 1.2-2 .8-1.3 1.9-2.3 2.8-3.5 2.2-1.7 4.1-3.6 8-3.5.6.3 1.2.6 1.8 1 .1 1.3.1 1.9 0 3.2-.3.5-.4 1.2-.7 1.6-.2.5-.6 1-.9 1.5-.7.9-1.5 1.5-2.2 2.3-3.3 2.2-6.5 4.5-10.4 6.1.2-.6.7-1 1-1.5.4-.4.6-1 1.2-1.3.7-.9 1.7-1.6 2.5-2.5.9-.7 2-1.3 2.8-2.2.6-.2.9-.7 1.3-1.2.5-.4.9-.7.9-1.6-.7-1-2.3-.1-3.1.3-1 .4-1.8 1-2.6 1.6s-1.5 1.3-2.3 1.9c-.3.4-.6.7-1 1 0 .3-.4.3-.4.6 0 .1-.4.6-.4.3-.5-.6.1-1.6.5-2.1zm13.1 10.3h-3.6c-.9.2-2.3 0-3.2.3h-2c-.5-.1-.6.2-1 .1h-3.2c-.7.1-1.3.2-2.2.1.1-.6.9-.4 1.3-.7 5.4 0 10.2-.6 15.5-.7.2 0 .3-.1.4-.1h.6c-.2 1-1.3 1.1-2.6 1z" fill="#1fba0a"/></svg>