<svg version="1.1" id="Layer_1" xmlns="http://www.w3.org/2000/svg" x="0" y="0" viewBox="0 0 12 9" xml:space="preserve"><style>.st0{fill:#1fba0a}</style><path class="st0" d="M1.4 2.8c.1.1.6.4 1.3.9s1.3.9 1.7 1.2c0 0 .1.1.3.2.1 0 .2.1.3.2.1.1.2.1.3.2.1.1.3.1.4.2s.2 0 .3 0c.1 0 .2 0 .3-.1.1 0 .2-.1.4-.2.1 0 .2 0 .3-.1.1-.1.2-.2.4-.3.1-.1.2-.2.3-.2.4-.3 1.4-1 3-2.1.3-.2.6-.5.8-.8s.3-.6.3-1c0-.3-.1-.5-.3-.7-.3-.1-.5-.2-.8-.2H1.3C1 0 .7.1.5.3.4.6.3.8.3 1.2c0 .3.1.6.4.9.2.3.4.5.7.7z"/><path class="st0" d="M11.1 3.5c-1.4.9-2.5 1.6-3.2 2.2-.2.1-.4.3-.6.4-.1.1-.3.2-.6.3-.2.1-.5.1-.7.1-.2 0-.5-.1-.7-.2s-.5-.1-.6-.2c-.2-.1-.4-.3-.6-.4-.6-.5-1.6-1.2-3.2-2.2l-.6-.6V8c0 .3.1.5.3.7.2.2.4.3.7.3h9.4c.3 0 .5-.1.7-.3.2-.2.3-.4.3-.7V2.9l-.6.6z"/></svg>