<svg xmlns="http://www.w3.org/2000/svg" viewBox="0 0 70 75"><path d="M68.3.5c-.4-.4-.9-.6-1.6-.4C57.3 3.5 47 3.2 37.7 7c-.6.2-.9.7-1.1 1.3-.1.2-.1.4-.2.6-.4 3.7-.6 7.4-.2 11.2-1.2-2.9-1.5-6.1-1.2-9.3.1-1.4-1.2-1.9-2.2-1.5-.2 0-.5.1-.7.2-4.6 2.7-8.8 5.9-12.8 9.4-.8.7-.6 1.5-.1 2.1 1 3.5 2.1 7 3.3 10.4-1.8-1.8-3-4.1-3.2-6.8-.2-1.9-2.8-2.1-3.3-.7-.1.1-.2.3-.2.4-3.3 9.1-3.5 18.8-.4 27.9C10.2 58.7 5.3 65.4 1 72.5c-1.1 1.8 1.8 3.5 2.9 1.7 4.6-7.5 9.7-14.6 15.3-21.2.2.1.3.1.5.1 14.2 1 25.6-5.9 36.7-14 1.6-1.2.3-3.7-1.3-3.1h-.4c-2.7.5-5.3.5-8-.1l-.1-.1c-.4-.3-.5-.5-.5-.8 4 .3 7.9.2 11.8-.5.3-.1.5-.2.7-.3s.3-.2.5-.3c8.5-8.6 10.4-20.3 10.3-32-.1-.7-.5-1.2-1.1-1.4zM56.8 31.4c-3.8.7-7.6.7-11.5.3h-.4c-.4 0-.7.2-1 .5-.9 1.1-1.4 2.2-1.2 3.6.2 1.2.9 2.1 1.8 2.8.2.3.5.5.9.6 1.4.4 2.8.6 4.3.6-8.4 5.7-17.2 10.2-27.8 10.1 7.6-8.5 16.1-16.3 25.5-23.2.2-.1.3-.3.4-.5.1-.1.2-.1.3-.2 4.6-3.6 8.4-7.9 11.7-12.6 1.2-1.8-1.7-3.4-2.9-1.7-3.1 4.5-6.9 8.5-11.2 12l-.3.3c-10 7.6-19.2 16-27.4 25.4-1.8-6.3-1.9-12.7-.5-19.1.9 1.7 2.1 3.2 3.7 4.5h.1c.4.5 1.1.7 1.8.6 1.5-.3 2.5-1.6 2.8-3V32c.1-.3.1-.6 0-.9-1.2-3.5-2.3-7-3.3-10.6 2.9-2.5 5.9-4.8 9.1-6.8.1 3.2.8 6.4 2.4 9.3.3.6.8.8 1.3.8.5.3 1.1.2 1.6 0 1-.5 1.8-1.3 2.3-2.3.3-.3.5-.7.4-1.2-.3-3.5-.2-7 .1-10.5 8.4-3.1 17.6-3.2 26.1-5.9 0 10-1.9 20-9.1 27.5z" fill="#1fba0a"/></svg>