<svg xmlns="http://www.w3.org/2000/svg" viewBox="0 0 41 41"><linearGradient id="a" gradientUnits="userSpaceOnUse" x1="20.5" y1="41" x2="20.5" y2="0"><stop offset="0" stop-color="#d44434"/><stop offset="1" stop-color="#f75b49"/></linearGradient><circle cx="20.5" cy="20.5" r="20.5" fill="url(#a)"/><path d="M30.9 22.9c-.3-4.2-2.3-6.8-4-9.1-1.6-2.1-3-4-3-6.7 0-.2-.1-.4-.3-.5-.2-.1-.4-.1-.6 0-2.6 1.8-4.7 5-5.5 7.9-.5 2.1-.6 4.4-.6 5.9-2.4-.5-2.9-4.1-2.9-4.1 0-.2-.1-.3-.3-.4-.2-.1-.4-.1-.5 0-.1.1-3.1 1.6-3.2 7.5v.6c0 5.8 4.7 10.5 10.5 10.5 0 0 0 0 0 0s0 0 0 0C26.3 34.5 31 29.8 31 24c0-.3-.1-1.1-.1-1.1zM20.5 33.3c-1.9 0-3.5-1.7-3.5-3.7v-.2c0-.9.2-1.5.4-1.9.3.7.9 1.4 1.9 1.4.3 0 .6-.3.6-.6 0-.8 0-1.8.2-2.7.2-.8.6-1.6 1.2-2.2.2.8.7 1.5 1.2 2.2.7 1 1.4 2 1.5 3.6v.3c0 2.2-1.6 3.8-3.5 3.8z" fill="#fff" stroke="#fff" stroke-width=".055" stroke-miterlimit="10"/></svg>