<svg xmlns="http://www.w3.org/2000/svg" viewBox="0 0 70 75"><path d="M63.6 29.4c-2.9.5-6.4 2.9-11 2.3-4.6-.7-3.7-5.4-3.6-6.5.1-1.1.8-1.8 2.2-5.2 1.3-3.4-9.4-5.1-12.3-5s-1.7.7-2.4.6c-.8-.1-2.6-.8-5.5-1.2s-9.1.8-14.7 1.6c-5.6.7-11 2.5-14.3 4.9s-2.1 8.3 0 11.6 4.4 6.6 6.9 8.4c2.5 1.7 8.4 4.2 8.3 4.6-.3 2.7 1.5 9.5 3 10.4 1.5.8 1.8 0 3.4-2.2 1.7-2.2 2.7-4.4 5-5.7s7.9-1.8 12.7-1.7c4.9.1 5.3 1.6 6.2 4.9s1.2 6.6 3.7 8.6 5.3-.1 6.8-3.6 3.9-11.8 6.2-14.2c2.3-2.4 4.7-4.3 5.5-7.6s-3.2-5.5-6.1-5zM39.4 16.5c3.4.4 7.7 1.1 9.2 2.4s.9 2 .3 2.8c-.6.8-1.2 1.3-1.7 2.8-.5 1.6-.9-.4-1.8-2.1-.9-1.7-1.4-2.8-4-4.3-2.6-1.4-2.3-1.7-2-1.6zM16.2 42c-1.1.4-3.9-1-8.5-5.7S1.7 26 3.2 24C4.6 22 8 20 14 18.8c0 0 1.8-.3 4.4-.8 2.6-.4 6.4.9 8.4 4.1s.7 9.4-2 14c-2.8 4.6-7.5 5.5-8.6 5.9zm9.5 6.1c-.8.6-1.8 2.7-3 4.3s-.9 2.1-1.6 2.2c-.7.1-.8-.9-1.2-1.8-.4-.9-1-4-1.2-5.5s1.2-1.5 2.2-1.1c1.1.4 4.2.4 5.4.7 1.2.4.2.7-.6 1.2zM65.5 38c-1.4 1.5-3.2 2.5-4.4 4.9s-3.6 8.3-4.5 11.6-1.9 4-3.4 3.9-2.3-3.7-2.8-6.7c-.4-3-1-4.6-2.4-6.4-1.4-1.8-6.4-.5-14.1-.4s-12.6-1-13.9-1.5 2.1-1.8 4.5-3.6 2.8-3.3 4.9-10.7S27.7 19 26 18.2s-.5-1.4.2-1.3c4.2.7 11.6.5 15.8 5s5.2 9.8 9 12 10-.8 12.1-1.4 2.4-.6 3.6.7c1.2 1.2.2 3.3-1.2 4.8zM19 20.6c-1.6-.4-3.5 1.2-4.4 2.7s.9 3.9 3.3 4c2.4.2 4-2.7 4-4 0-1.2-.8-2.2-2.9-2.7zm-.2 5.3c-.9.5-1.4.2-2.6-.6-1.2-.8 0-2.5 1.2-3 1.8-.7 2.6-.1 3.1.7s-.8 2.4-1.7 2.9zM33.5 23c-.7-.1-1.3.6-1.1 1.7s1.7.7 2.2.2c.4-.4.3-1.8-1.1-1.9zm6.4 2.4c-.7-.3-2.1.7-2.4 1.5-.3.7-.1 2 1.5 2.2 1.5.3 2.3-1.6 2.3-2.3-.1-.7-1-1.2-1.4-1.4zm-7.7 6.5c-.8-.2-1.8.9-1.6 2.2.2 1.2 1.6 1 2.3.5s.7-2.4-.7-2.7zm-4.1 8c-.5-.2-2.2.7-1.3 1.8.9 1.1 1.6.7 2.5.2.9-.6-.2-1.7-1.2-2zm7.2.3c-.7-.1-2.1.8-1.4 1.6.7.8.6.8 1.8.4 1.2-.4 1-1.7-.4-2zm3.4-5.5c-.9-.2-1.7.3-1.7 1.4 0 1.1 1.3 1.3 2.2 1 1-.2 1.1-2-.5-2.4zm8.6-.5c-.8-.3-2.4.7-1.9 1.7.5.9 1.7.7 2.3.6.6-.2.7-1.9-.4-2.3zm-1.4 5.1c-.5 0-.3.7-.8 1s-1.7.7-1.1 1.4c.6.7 1.5 1.1 2.2.7.8-.3 2.1-3.2-.3-3.1zm5.4-2.2c-.4 0-1.3 1.1-.8 1.5.6.4 1.7 0 2-.3.2-.3-.2-1-1.2-1.2zm.3 6.6c-.5.4 0 1.1 1.1 2.1s2 2 2.6 1.5c.6-.6-1.4-2.1-2-3-.5-.8-1.2-1-1.7-.6zm5-6c-1.3-.1-2.3.5-2.1 1.2.3.7 1.2.4 3.1.4s3.1-.5 2.5-.9c-.5-.5-1.9-.5-3.5-.7z" fill="#1fba0a"/></svg>