<svg version="1.1" id="Layer_1" xmlns="http://www.w3.org/2000/svg" x="0" y="0" viewBox="0 0 48 48" xml:space="preserve"><style>.st0{fill:#fff}</style><path class="st0" d="M23.9 28.1c2.2 0 4.1-1.8 4.1-4.1 0-.9-.3-1.7-.8-2.4-.7-1-2-1.7-3.3-1.7s-2.6.7-3.3 1.7c-.5.7-.8 1.5-.8 2.4 0 2.3 1.9 4.1 4.1 4.1zm9-12.6V15h-4v4h4z"/><path class="st0" d="M30.3 24c0 3.5-2.9 6.4-6.4 6.4s-6.4-2.9-6.4-6.4c0-.8.2-1.7.5-2.4h-3.5v9.6c0 1.2 1 2.2 2.2 2.2h14.4c1.2 0 2.2-1 2.2-2.2v-9.6h-3.5c.3.7.5 1.6.5 2.4z"/><path class="st0" d="M24 0C10.7 0 0 10.7 0 24s10.7 24 24 24 24-10.7 24-24S37.3 0 24 0zm11.6 21.6v9.6c0 2.5-2 4.5-4.5 4.5H16.7c-2.5 0-4.5-2-4.5-4.5V16.8c0-2.5 2-4.5 4.5-4.5h14.4c2.5 0 4.5 2 4.5 4.5v4.8z"/></svg>