<svg xmlns="http://www.w3.org/2000/svg" viewBox="0 0 70 75"><path d="M69.7 5.8c-.5-.3-.7-1-1.7-.7-.2 0-.2.2-.4.1-3.5 1.9-6 4.7-8.2 7.9-.6.7-1.1 1.5-1.8 2.2-.3.4-.7.7-1 1l-.9 1.2c-.1.2-.3.3-.4.4-.5.6-1 1.1-1.5 1.6l-2 2c-2.7 2.7-4.8 6-7.6 8.6-2.7 2.7-5.6 5.2-8.3 7.9-1.4-1.5-3-2.7-4.4-4.2.3-2-.5-4-.7-6 0-1.7-.1-3.6.1-5.1-.5-1.3-.9-2.8-1.3-4.2-2.2-2.7-4.7-5.2-7.1-7.7-.5-.6-1.2-.8-1.6-1.5-.5-.5-1.3-.8-1.6-1.5-.9-.2-1.3-.8-2.2-.9-1 .4-1.7 1.2-2.5 1.8-.6.8-1.4 1.4-2 2.2-1.6 1.2-2.9 2.7-4.2 4.2C7 16.5 5.3 17.6 4 19.2c-.4.3-.7.6-1 1-.4.3-.9.6-1 1.2-.5.2-.7.8-1 1.2-.2.5-.8.7-.7 1.5.2 1.1.8 1.6 1.5 2.2.4.8 1.1 1.3 1.6 2 2.9 3.1 6.1 6.1 9.2 9 .6.6 1.1 1.5 2 1.8 1.3.1 2.3-.1 3.5-.1.4-.3 1-.4 1.5-.6.3-.4 1-.4 1.5-.7 2.7-.3 4.7-1.2 7.7-1.2.8.7 1.5 1.6 2.2 2.3.6.2.7.9 1.2 1.2.2.5.9.6 1 1.3-3.3 3.2-6.7 6.3-9.8 9.6-.9.7-1.6 1.7-2.3 2.5-.4.4-.7.9-1.2 1.2-.1.7-.9.7-1 1.5-.9.7-1.6 1.6-2.3 2.5-.9.7-1.8 1.5-2.3 2.6-.4.4-1.2.5-1.5 1v.3c-.3.5-.3 1.2-.3 2 .3 1 .8 1.8 1.6 2.3.6.8 1.2 1.5 2 2 .6.1.9.5 1.6.6h1.8c.8-.4 1.6-.7 2-1.5.4-.1.6-.6.9-.9s.6-.6.7-1c1.1-1.2 2.1-2.5 3.2-3.8.4-.2.6-.6.9-.9.3-.3.7-.5.9-.9.5-.6 1.1-1.2 1.6-1.9.6-.5 1.1-1.2 1.6-1.9.9-.3 1.2-1.3 1.9-1.8.5-.7.5-1.7 1.3-2 .4.3.8.5 1.3.7.1.6.7.6 1 1 .9.5 1.3 1.4 2.6 1.5 2.3-.9 3.3-3.1 4.8-4.8.5 0 .6.5.9.7.9.8 1.8 1.6 2.5 2.5 1.1 1.7 2.1 3.6 3.2 5.3.3 1.1 1 1.8 1.3 2.9.4.4.5.9.9 1.3.1.7.6.8.7 1.5.7.7 1.4 1.4 2 2.2 1.4.7 2.5 1.9 4.2 2.3 1 .1 1.7-.1 2.2-.4.7-.1.9.5 1.5.1 1.3-.8 2.1-2.1 2.5-3.8.1-1.4-.3-2.2-.4-3.4-.5-.5-.8-1.3-1.3-1.9-.4-.7-1.3-1-1.8-1.6-1-1.2-2.3-2.1-3.6-2.9-1.2-.9-2.7-1.7-4.1-2.5-.8-.4-1.4-.8-2.2-1.2-.8-.3-1.4-.9-2.3-1-.5-.7-1.1-1.3-1.9-1.8-.4-.8-1.4-1-1.8-1.9 3.9-5.5 7.8-11.1 11.2-17.1.5-.8 1.1-1.7 1.6-2.3.2-.2.2-.4.3-.6l.3-.1c.1-.1.1-.3.1-.4.1-.1.2-.3.3-.4l.3-.6c0-.1.3-.1.3-.1.1-.1.1-.3.1-.4.3-.5.5-1 .7-1.5 1.2-2.3 2.5-4.6 3.6-7 .8-1.6 1.7-3 2.3-4.8.6-.5.9-1.3 1.3-1.9 0-.2 0-.4.1-.4.1-1.5 1-2.7.5-4.2zM28 27.7c.5.4-.4.5 0 0zm-10.4 7.4c-.7.1-1-.3-1.8-.3-1.1-.6-1.8-1.7-2.8-2.5-.9-.8-1.9-1.5-2.6-2.5a71.7 71.7 0 0 1-3.9-3.9c-.4-.4-1-.7-1.2-1.3.1-.9.5-1.3.4-2.3 1.3.1 2.3.5 3.6.6.6.2.9.7 1.3 1.2.5.3.8.9 1.3 1.2.7.9 1.5 1.7 2.3 2.5 1.4 1.8 3.7 2.7 4.7 5 .2 1.1-.4 1.8-1.3 2.3zm5.6-6.3c-.5.4-1.1.5-1.8.7-.8-.1-1.1-.7-1.6-1.2-.5-.3-1-.8-1.5-1.2-2.9-2.5-5.5-5.2-7.9-8.2v-1c.2-.4-.4-.6 0-.7-.1-.5.3-.2.4-.1h.7c.3-.2.8-.2 1.2-.4h.3c3.3 3.4 6.5 6.9 9.8 10.4.1.7.5 1 .4 1.7zm4.1-5.5c-1 .2-2.2.3-3.1.6-.5.1-.2-.5-.6-.4 0-.3-.4-.3-.4-.6-.4-.3-.7-.6-1-1-.8-.5-1.2-1.5-2-2-1.3-1.5-2.7-2.7-4.1-4.1.2-1-.3-2.4-.4-3.5.3-.4.6-.8 1.2-1 1.2.5 2.2 1.2 3.4 1.8.1.4.4.6.4 1 2.3 2.3 4.7 4.4 6.9 6.7-.3.7 0 1.9-.3 2.5zm.4 9.8c-.1-.5.5-.2.4-.6.2 0 .1.4.1.6h-.5zm-8 30.5c-.3-.2-.5-.4-.7-.7-.6-.4-.8-1.1-1.5-1.5-.1-.3.1-.4.1-.6.2 0 .3.1.4.1.7 1.1 1.4 2.2 2.3 3.1-.1.4-.5-.3-.6-.4zm9.2-12.4c-1.3 2-3 3.6-4.4 5.5-.4.2-.9.2-1.2.4.1.9-.1 1.3-.4 1.8-.7 0-.8-.6-1.8-.4-.2.1-.2.3-.4.3-.1 1.3.8 1.7 1 2.6-.9-.6-1.4-1.7-2-2.5.6-1 1.5-1.7 2.2-2.6.8-.8 1.5-1.6 2.2-2.5.5-.3.8-.9 1.3-1.2.1-.3.3-.5.6-.6.2-.2.2-.6.6-.6.3-.5.7-.8 1.2-1.2.3-.4.7-.8 1.2-1.2.1-.2.3-.2.3-.4.6 0 .7.4 1.2.6-.4 1-1 1.4-1.6 2zm1.7 2c0 .1 0 .2-.1.1 0 .1 0 .2-.1.1 0 .2-.2.1 0 0 0-.1 0-.2.1-.1 0 0 0-.1.1-.1.1-.4.1-.8.6-.7 0 .4-.3.5-.6.7zM62 63.7c-.6 0-.3-.9-.6-1.3.6 0 .9.9.6 1.3zm-1.9-2.5c0 .3-.6.1-.9.1-.1-.4-.4-.6-.4-1 .5.3.9.6 1.3.9zm-1.9 4.4c-.2-.1-.5-.2-.4-.6.4 0 .4.2.4.6zm7.3-53.7c-.4.8-1 1.3-1.3 2.2-.6.5-.9 1.4-1.3 2.2-.5.7-.9 1.5-1 2.5-.4.5-.9 1-1.3 1.5-.4 1.8-1.5 3-2.2 4.5-.8 1.5-1.5 3-2.5 4.2-1.7 2.7-4 4.9-5.5 7.7-1.8 2.7-3.7 5.1-5.7 7.6-1.9 2.6-3.8 5-5.5 7.7-.7-.2-1.1-.8-1.8-1-.4-.5-1-.9-1.5-1.3-.8-1-1.9-1.7-2.6-2.8.2-.8.8-1 1.2-1.6.6-.3.7-1 1.3-1.3.8-.9 1.7-1.8 2.6-2.6.5-.4.9-.8 1.3-1.3s1-.7 1.3-1.3c1.1-.7 1.8-1.7 2.8-2.5.7-1.5 2.1-2.4 3.1-3.6 1.1-1.1 2-2.3 3.1-3.5.9-1.3 1.9-2.6 2.9-3.8.5-.6 1-1.2 1.5-1.9.7-.4.9-1.2 1.8-1.5 0-.6.6-.4.6-1 .3-.2.5-.6.7-.9.4-.6.9-1.1 1.5-1.6.9-1.2 1.8-2.3 2.6-3.5 1.9-1.6 3.6-3.5 5.4-5.3.2-.1.3.1.3.3-.9.5-1.2 1.4-1.8 1.9zM39.1 44.1c.2 0 0-.1 0 0zm-.2.2c.1 0 .1-.1 0 0 .1-.2.1-.1 0 0zm0 0c-.2.1.1.2 0 0z" fill="#1fba0a"/></svg>