<svg xmlns="http://www.w3.org/2000/svg" viewBox="0 0 70 75"><path d="M34.9 46.3H19.6c-3.9 0-7.7.8-11.2 2.4l-.2.1c-2 .9-3.2 2.6-3.5 4.8-.5.1-1.2 0-1.6-.2-.3-.2-.6-.6-.7-1.1-.1-.4-.5-.7-1-.7-.4.1-.7.5-.7 1 .2 1 .7 1.7 1.5 2.1.7.4 1.4.5 2.1.5h.4c.3 1.8 1.5 3.5 3.2 4.3 3.7 1.8 7.8 2.7 12 2.7h15.8c.6 0 1.2-.4 1.2-1.1V61c.7-4.6.4-9.5-1-14 0-.4-.4-.7-1-.7zM20.1 59.9c-3.7 0-7.5-.9-10.9-2.5-1.2-.6-2-1.8-1.9-3.1 0-1.4.7-2.6 2.1-3.1l.2-.1c3.2-1.4 6.7-2.1 10.2-2.1H34c.7 2.6 1.1 5.3 1.1 8H19.6c-5.4 0-8-1.9-8.1-1.9-.3-.2-.9-.2-1.2.2-.2.3-.2.9.2 1.2.1.1 3.1 2.2 9.1 2.2H35c0 .4-.1.9-.2 1.3l-14.7-.1zM69 56.5c-.7-1.4-3-1.5-5.2-.2.4-1.3.4-2.5-.5-3.1-1-.7-2.2-.2-3.4.9.3-1.3.2-2.5-.7-3.1s-2-.3-3.1.3c.1-1.1-.2-2-1-2.5-.8-.6-1.8-.4-2.9.1-.1-1-.6-1.6-1.1-1.9-2.1-1.5-5.6 1.4-7.9 4.7-2.3 3.3-3.7 7.6-1.6 9.1.3.2.7.4 1.3.4.7 0 1.7-.2 2.7-1.1.1 0 .1-.1.2-.1.2.5.5.8.7 1 .4.2.8.4 1.2.4 1.1 0 2.3-.7 3.4-1.7.1.6.3 1.1.8 1.4.2.2.7.3 1.2.3.6 0 1.2-.2 2.1-.8.5-.3 1-.8 1.6-1.4-.1 1.2.4 1.7.7 2 .2.2.6.3 1 .3.5 0 1.1-.2 1.7-.7.2-.2.5-.3.7-.6.1.2.1.3.2.5.4.7 1.2 1.1 2.2 1.1h.2c.8-.1 1.8-.3 2.6-.9 2.6-1.1 3.6-3 2.9-4.4zm-26.1 2.2c-.2-.6.2-2.7 2.1-5.6s3.9-4 4.5-4c.2.6-.2 2.7-2.1 5.6-1.9 2.8-3.9 4-4.5 4zm5.2.2c0-.2 0-.6.2-1.1.4-.5.9-1.1 1.2-1.7.8-1.2 1.5-2.5 2-3.6.9-.9 1.7-1.4 2.1-1.5.1.7-.3 2.4-1.9 4.5-1.6 2.2-3.1 3.2-3.6 3.4zm8-2.5c-.9 1.3-1.8 2.1-2.4 2.4.1-.7.5-1.7 1.4-3.1.9-1.3 1.8-2.1 2.4-2.4-.2.6-.5 1.8-1.4 3.1zm3.3 2.4c.2-.4.4-1 .9-1.7s.9-1.2 1.2-1.5c-.2.4-.4 1-.9 1.7s-.9 1.2-1.2 1.5zm5.8.1c-.6.3-1.2.5-1.5.6.2-.2.6-.7 1.2-1 .7-.3 1.2-.5 1.5-.6-.2.2-.6.6-1.2 1zM17.6 39.4h.2l10.6-1.7v2.1c0 .4.2.7.5 1 .2.2.5.2.7.2h.2l6.4-1.5c5.2-1.2 9.8-3.5 13.5-6.7 5.5-5 8.3-11.5 8.3-18.9 0-.4-.2-.8-.6-1.1-.3-.2-.8-.2-1.2-.1L29.1 24.4l-12 5.4c-.4.2-.7.7-.7 1.2v7.3c0 .3.2.7.4.9.2.1.4.2.8.2zM48.1 31c-2.8 2.6-6.3 4.4-10.1 5.5l1.5-3.6c.1-.2.3-.5.6-.6.2-.1.6-.1.8 0l.1.1c.7.3 1.6.3 2.3 0s1.2-1 1.5-1.7l.4-1.5c.2-.6.7-.9 1.2-.7l.8.2c1.2.2 2.5-.4 3-1.6.1-.2.3-.5.6-.6.2-.1.6-.1.8.1l.2.2c-1.1 1.5-2.3 2.9-3.7 4.2zm4.5-5.7l-.4-.2c-.7-.3-1.4-.4-2.1-.2-.7.2-1.2.7-1.6 1.4-.2.4-.7.7-1.2.6l-.8-.2c-1.4-.3-2.8.6-3.1 2l-.4 1.5c-.1.3-.2.6-.6.7-.2.2-.6.2-.9 0l-.1-.1c-.7-.3-1.4-.3-2.1-.1-.7.2-1.2.8-1.5 1.5l-2 4.8c-.1 0-.2 0-.2.1l-4.9 1.2v-12l24.7-10.5c-.2 3.5-1.1 6.6-2.8 9.5zm-33.8 6.4l9.5-4.3v7.8l-9.5 1.5v-5z" fill="#1fba0a"/></svg>