<svg version="1.1" id="Layer_1" xmlns="http://www.w3.org/2000/svg" xmlns:xlink="http://www.w3.org/1999/xlink" x="0" y="0" viewBox="0 0 150 55" xml:space="preserve"><style>.st3{stroke:#000;stroke-width:.3159}</style><g id="Слой_x0020_1"><g id="_612943824"><radialGradient id="SVGID_1_" cx="7642.124" cy="-19522.205" r="469.947" gradientTransform="matrix(-.02413 .0333 -.03314 -.02428 -433.251 -701.473)" gradientUnits="userSpaceOnUse"><stop offset="0" stop-color="#ffe93d"/><stop offset="1" stop-color="#fc1f02"/></radialGradient><path d="M26.6.9l-5 2.4-5.2-.3-3.7 4-4.9 1.7-1.9 5.2L2 17.3l.3 5.5L0 27.5l2.3 5-.3 5.2 4.1 3.7 1.7 5 5.2 1.8 3.4 3.9 5.5-.3 4.7 2.3 5-2.4 5.2.3 3.7-4.1 5-1.7 1.8-5.2 3.9-3.4-.2-5.4 2.3-4.7-2.3-5 .3-5.2-4.1-3.7-1.7-5-5.2-1.8-3.4-3.9-5.5.3L26.6.9z" fill="url(#SVGID_1_)"/><defs><path id="SVGID_2_" d="M26.6.9l-4.9 2.3-5.3-.3L12.7 7 7.8 8.7l-1.9 5.1L2 17.3l.3 5.5L0 27.5l2.3 5-.3 5.2 4.1 3.7 1.7 4.9 5.2 1.9 3.4 3.9 5.5-.3 4.7 2.3 5-2.3 5.2.3 3.7-4.1 5-1.7 1.8-5.2 3.9-3.4-.2-5.5 2.3-4.7-2.4-5 .3-5.2-4.1-3.7-1.6-4.9-5.2-1.9-3.5-3.9-5.5.3z"/></defs><clipPath id="SVGID_3_"><use xlink:href="#SVGID_2_" overflow="visible"/></clipPath><g clip-path="url(#SVGID_3_)"><path id="_x31_" d="M14 38.4s1.8-5.4 2.3-7.3c.5-1.9 1.1-3.6 1.1-3.6s-4.2-.2-5.9-3.4c-1.7-3.3-.4-7.3-.4-7.3s-.2-.3-.3-.9l-4.1 5 4-5.2c-.2-.5-.3-1.1-.3-1.8L7.6 15l2.7-1.1c-.1-1.4.3-2.9 2-3.7 1.2-.5 2.2-.7 3.2-.7l2.4-3.1.4.2L16 9.4c1.6.1 2.7.8 2.7.8h.3l5.1-2.1.2.4-4.3 1.7c1.4.1 3.8.4 5.2 1.5 2.3 1.8 2.8 3.3 3.1 3.8.3.5 1.3 1.6 1.2 3.4-.1 1.6-.4 2.3-.4 3.3.2-.1.4-.2.5-.3.2-.2.5-.4.5-.4s-.3.5-.5.6c-.2.1.7-.3.9-.5l.3-.3s-.2.5-.6.7l.9-.6s-.7.7-1.4.9c-.2.1-.3.1-.5.1v.1c.1 1.1.8 2.4.9 2.8.1.3-.9.5-1.1.5-.2.1-.4.4-.3.8.1.4.1.8-.3.8h-.5s.5.2.4.6c-.1.4-.2.2-.4.5s-.3 1.2-.4 1.6c-.1.4-.9.6-2.1-.3-1.2-.9-1.9-1.5-1.9-1.5s-1.6 2.2-1.8 4.3c-.2 2.1.2 4.3.2 4.3s.1.3.1 1c.6 1 1.3 2.3 1.9 3.2.7 1.1 3.3 5.3 4.4 8.8.9-2.3 1.5-4.9 1.5-4.9l.2.2 1.3-3.5s-.4-1.1-.1-2.5c.3-1.4 1.3-4.7 1.7-5.1 0 0 .1.4 0 1s-.5 2.1-.5 2.1-.4.8.3 1.3 1.6-.1 2.2-.3c.6-.3 3-1.9 3-1.9s1-1.8 1.4-2.3c.4-.5 1.2-1.1 1.2-1.1s-.2.3-.4.7c-.2.3-.9 1.6-.9 1.6s.8-.5 1.3-1 1.1-.6 1.1-.6l-.3.2C41 33.9 40 35 40 35s.7-.5.9-.6c.2-.1.8-.3.8-.3s-1.8 1.6-3.5 2.9c-1.7 1.4-3.7 3.3-3.7 3.3s-.3.6-.8 1.5-1.9 5.9-1.9 5.9c1.1 6.7 5.1 9.7 4.4 20l-16.4-1.8c-1.5 0-3.1-.1-4.1-.5-.7-.2-1.1-.6-1-1.1.2-2.3-1.5-8.1-2-14-.5-5.7 1.3-11.9 1.3-11.9zm25.5-7.1c-.3.3-1 .6-1.6.5-.3 0-.5 0-.8-.2-1-.7-.5-1.5.1-1.5.3 0 .5.1.7.2.1 0 .1.1.2.1-.1-.2-.3-.8 0-1.5.4-1 1.2-1.6 2-1 .3.2.3.6.3 1.1l.2.2c.3.8-1.1 2.1-1.1 2.1z"/></g><path d="M26.6.9l-5 2.4-5.2-.3-3.7 4-4.9 1.7-1.9 5.2L2 17.3l.3 5.5L0 27.5l2.3 5-.3 5.2 4.1 3.7 1.7 5 5.2 1.8 3.4 3.9 5.5-.3 4.7 2.3 5-2.4 5.2.3 3.7-4.1 5-1.7 1.8-5.2 3.9-3.4-.2-5.4 2.3-4.7-2.3-5 .3-5.2-4.1-3.7-1.7-5-5.2-1.8-3.4-3.9-5.5.3L26.6.9zm10.2 2L16.4 52.1M26.6.9v53.3M16.4 2.9l20.4 49.3M7.8 8.7l37.7 37.7M2 17.3l49.2 20.4M0 27.5h53.3M2 37.7l49.2-20.4m-43.4 29L45.5 8.7" fill="none" stroke="#000" stroke-width=".316"/><path class="st3" d="M24.6 47.4c.6-1.3 1.7-2.1 1.1-3.7s-1-3.4-1.1-4.2c-.1-.8-1.6-.3-1.7.7-.1 1-.4 1.9-.6 2.3-.2.5-.4 2.2 0 2.9.4.7 2.3 2 2.3 2z"/><path class="st3" d="M25.3 29.9l-.1.4-2.7 12 .8.1 2.5-12-.5-.5z"/><path d="M24.5 40.1c.1 0 .5-.2.6.3.2.5-.4.9-.4.9s.4-.2.5-.2c.1 0 .5.4.3.9-.2.4-.6.5-.5.4.1 0-1.3-.3-1.3-.3l.8-2z"/></g><path d="M64 25.3c0-1.8.3-3.6 1.1-5.6.7-1.9 1.8-4 3.2-6.1H72l2.7 13.2 3.6-13.2h3.5l2.4 16.6h-3.5l-1.9-12.6-3.5 12.6H72l-3.1-14.8c-1 2.4-1.5 5.2-1.5 8.3 0 2.1.3 4.2 1.1 6.5h-3.7c-.6-1.6-.8-3.2-.8-4.9z"/><path id="_x31__1_" d="M85.6 23.8c0-1.5.6-3 1.8-4.8h3.3c-.7 1.3-1.2 2.4-1.5 3.3-.3.9-.4 1.8-.4 2.7 0 1.5.2 2.9.6 4l5.4-10h3.5v11.3h-3.2v-9.1l-5 9.1h-1.6c0-.3-.1-.7-.3-1-.2-.3-.4-.7-.7-1-.3-.3-.6-.8-.9-1.1-.3-.4-.5-.9-.7-1.5-.2-.7-.3-1.3-.3-1.9z"/><path id="_x32_" d="M100.5 30.3V19h3.2v5.1h1.4c.1-.7.3-1.4.7-2 .3-.6.8-1.2 1.3-1.7s1.1-.9 1.9-1.2c.7-.3 1.5-.4 2.3-.4.9 0 1.8.2 2.6.6.8.4 1.5.9 2 1.5s.9 1.3 1.2 2.1c.3.8.4 1.5.4 2.3 0 .8-.2 1.5-.4 2.2-.3.7-.6 1.2-1 1.5-.4.4-.9.7-1.4.9-.6.3-1.1.4-1.7.5-.5.1-1.1.2-1.7.2-.6 0-1.1 0-1.6-.2-.5-.1-1.1-.3-1.6-.5-.6-.3-1-.6-1.5-.9-.4-.4-.8-.9-1-1.5-.3-.6-.4-1.3-.4-2.1h-1.3v4.8l-3.4.1zm7.9-4.8c0 1.3.3 2.3.8 2.9s1.2.9 2.1.9c.9 0 1.5-.3 2.1-.9s.8-1.6.8-2.9c0-.7 0-1.3-.1-1.9-.1-.6-.2-1.2-.4-1.7-.2-.6-.5-1-.9-1.3-.4-.3-.9-.5-1.4-.5-.5 0-1 .2-1.4.5-.4.3-.7.8-.9 1.3-.2.6-.3 1.1-.4 1.7-.2.6-.3 1.2-.3 1.9z"/><path id="_x33_" d="M119.3 30.3V19h3.2v10.1h3.2V19h3.2v10.1h3.3V19h3.2v11.3h-16.1z"/><path id="_x34_" d="M137.2 23.8c0-1.5.6-3 1.8-4.8h3.3c-.7 1.3-1.2 2.4-1.5 3.3-.3.9-.4 1.8-.4 2.7 0 1.5.2 2.9.6 4l5.3-10h3.5v11.3h-3.2v-9.1l-5 9.1H140c0-.3-.1-.7-.3-1-.2-.3-.4-.7-.7-1-.3-.3-.6-.8-.9-1.1-.3-.4-.5-.9-.7-1.5-.1-.7-.2-1.3-.2-1.9z"/><path d="M67.5 41.9l.8.1c-.1.5-.3.9-.7 1.2-.3.3-.8.4-1.3.4-.6 0-1.1-.2-1.5-.6s-.6-1-.6-1.8c0-.5.1-.9.2-1.3.2-.3.4-.7.8-.8.3-.2.7-.3 1.1-.3.5 0 .9.1 1.2.3.3.3.5.6.6 1.1l-.8.1c-.1-.3-.2-.5-.4-.7-.2-.2-.4-.2-.7-.2-.4 0-.7.2-.9.4-.3.3-.3.7-.3 1.3 0 .6.1 1.1.3 1.3.2.3.5.4.9.4.3 0 .6-.1.8-.3.3.1.4-.2.5-.6z"/><path id="_x31__2_" d="M68.9 45.3l-.1-.7c.2 0 .3.1.4.1.2 0 .3 0 .4-.1s.2-.2.3-.2c.1-.1.1-.3.2-.6 0-.1 0-.1.1-.2L68.4 39h.8l.9 2.7c.1.3.2.7.3 1.1.1-.3.2-.7.3-1l1-2.7h.8L71 43.7c-.2.5-.3.8-.4 1-.2.3-.3.4-.5.6-.2.1-.4.2-.6.2-.2-.1-.4-.1-.6-.2z"/><path id="_x32__1_" d="M73.4 39h.8v3.9H76V39h.8v3.9h1.8V39h.8v4.6h-5.9V39z"/><path id="_x33__1_" d="M80.4 39h.8v3.5l2.2-3.5h.8v4.6h-.8v-3.5l-2.1 3.5h-.9V39z"/><path id="_x34__1_" d="M87.8 39h.8v3.5l2.2-3.5h.9v4.6h-.8v-3.5l-2.1 3.5h-.9V39z"/><path id="_x35__1_" d="M95.2 45.3V39h.7v.6c.2-.2.3-.4.6-.5.2-.1.4-.2.8-.2s.8.1 1 .3c.3.2.5.5.7.9.2.3.2.8.2 1.2 0 .5-.1.9-.3 1.3-.2.3-.4.7-.7.9-.3.2-.7.3-1 .3-.3 0-.5-.1-.7-.2-.2-.1-.3-.3-.5-.4v2.2l-.8-.1zm.7-4c0 .6.1 1 .3 1.3.2.3.5.4.9.4.3 0 .6-.2.9-.4.2-.3.3-.8.3-1.3s-.1-1-.3-1.3c-.2-.3-.5-.4-.9-.4-.3 0-.6.2-.9.5s-.3.6-.3 1.2z"/><path id="_x36__1_" d="M99.9 41.3c0-.9.2-1.5.7-1.9.4-.3.9-.5 1.4-.5.6 0 1.2.2 1.5.6.4.4.6 1 .6 1.7 0 .6-.1 1-.3 1.4-.2.3-.4.6-.8.8-.3.2-.7.3-1.1.3-.6 0-1.2-.2-1.5-.6-.3-.5-.5-1.1-.5-1.8zm.8 0c0 .6.1 1 .4 1.3.3.3.6.4.9.4.4 0 .7-.2 1-.4s.4-.8.4-1.3-.1-1-.4-1.3c-.3-.3-.6-.4-1-.4s-.7.2-.9.4c-.3.2-.4.7-.4 1.3z"/><path id="_x37__1_" d="M105.2 39h3.6v4.6h-.8v-3.9h-2V43c0 .2-.2.3-.3.4-.2.1-.4.2-.7.2h-.6v-.7h.3c.2 0 .3 0 .3-.1.1 0 .1-.1.2-.2V39z"/><path id="_x38__1_" d="M110.4 39h3.6v4.6h-.8v-3.9h-2.1V42c0 .5 0 .9-.1 1 0 .2-.1.3-.3.4-.2.1-.3.2-.7.2h-.6v-.7h.3c.2 0 .3 0 .3-.1.1 0 .1-.1.1-.2V39z"/><path id="_x39_" d="M119.5 39h.8v4.6h-.8V39zm-4.3 0h.8v1.8h1c.7 0 1.1.1 1.5.4.3.2.5.6.5 1s-.2.7-.4 1c-.3.3-.8.4-1.4.4h-1.9l-.1-4.6zm.8 3.9h.8c.5 0 .9-.1 1-.2.2-.1.3-.3.3-.6 0-.2-.1-.4-.2-.5-.2-.2-.5-.2-1-.2h-.9v1.5z"/></g></svg>