<svg xmlns="http://www.w3.org/2000/svg" viewBox="0 0 70 75"><path d="M69.4 10c-.4-.6-.8-1.1-1.2-1.8-.8-.6-1.6-1.2-2.5-1.8-.5-.1-1-.2-1.3-.4h-2.9c-.6-.1-.8-.6-1.2-1s-.9-.6-1.2-1c-1.9-.9-3.5-2-5.8-2.3-.3 0-.3-.2-.6-.1-2.8-.1-5.3.1-7.2.9-.4.3-1 .6-1.5.9s-.7.9-1.3 1c-2.4-2.3-5.9-3.5-11-3.2-2.1.3-4 .8-5.7 1.6-.4.4-1 .6-1.5 1-.6.3-.7 1-1.5 1.2-.6-.6-1.5-.9-2.5-1.2-.6-.1-1.1-.2-1.8-.3-1.3 0-2.2.3-3.4.4-.8.5-1.7.9-2.6 1.3-.2.4-.8.5-1.2.7-.2.1-.5.6-1 .7-.3.5-.9.8-1.3 1.2-.5.4-.6 1.1-1.2 1.3-2.4-.5-4.6.4-6.1 1.3C.7 12 0 14.1.2 17c.2.2.2.6.3 1 .2.2.4.5.4.9.4.5.7 1.1 1 1.6.4.5.8 1 1.3 1.3.4.5.8 1.1 1.6 1.2.4.3 1.6.1 2 0 2.3 4.4 4.5 8.7 6.7 13.2.7 1.1 1.3 2.6 1.9 3.7.2.3.3.5.4.7.2.5.4.9.6 1.3.2.3.4.5.6.7.3.5.4 1.1.6 1.5 0 .1.3.1.3.1.3.5.4 1.1.6 1.5 0 .1.3.1.3.1.3.5.4 1.2.7 1.8 0 .1.2.2.3.3.3.4.5.9.6 1.3.5.4.7 1 .9 1.6.4.4.7 1 .9 1.6.8.9 1.1 2.2 1.9 3.1.1.7.6 1.1.7 1.8.6.3.5 1.2 1 1.5.5 1.2 1.1 2.2 1.8 3.2.5 1.1 1.1 2.3 1.8 3.2.5 1.2 1.1 2.2 1.9 3.1.3.5.6 1 .9 1.6.2.6.7 1 .9 1.6.8.9 1.2 2.2 2.6 2.5.3.4.9-.2 1.5 0 .5-.1 1-.2 1.6-.1 1.6-1.5 2.5-3.6 3.8-5.4 1.1-2 2.6-3.6 3.4-6 1.2-1.9 1.8-4.3 2.6-6.6 1-2.1 2-4.2 3.1-6.3 2.2-4 4.3-8.1 6.1-12.4.6-.9.8-2.2 1.5-3.1.4-1.2 1.1-2 1.5-3.2.9-2.3 1.8-4.4 2-7.3.7-1.1 1.1-2.5 1.6-3.8 1 0 1.6-.6 2.3-.9 1.3-1.4 2.6-2.9 3.1-5.1v-2.3c-.2-.6-.3-1.1-.4-1.5zM32.1 63.8c-.3-.4-.3-1.1-.7-1.5 0-.5.9-.1.7-.7 0-.3-.2-.3-.1-.6-.5-.1-.7.1-1 .1-.4-.7-.7-1.5-1-2.3 1-.5 1.9-1 3.4-1 .6.4 1 1.1 1.5 1.6-.1.7.2 1.7-.1 2.2h-.1c-.7 1.1-1.4 1.8-2.6 2.2zm17.2-16.3c-.1.7-.4 1.1-.7 1.6-.2.6-.5 1.2-.7 1.8-.3.5-.4 1.2-.9 1.5-.6-.1-.6-.7-.9-1-.2-.3-.2-.9-.4-1.3.1-1-.2-1.6-.1-2.6l.3-.3c.2-.4.5-.8 1-1 .8-.4 2.3-.7 3.4-.1-.3.4-.6 1-1 1.4zm6.9-13.8c-1.5 3.5-3.4 6.6-4.8 10.2-.6-.2-1-.6-1.9-.6-2.6 0-4.4 1.2-5.4 3.1-.6 1.1-.8 2.1-.7 3.9.2.8.3 1.6.7 2.2.2.5.6.8.9 1.2.3.4 1.1.3 1.2.9-3 5.6-5.7 11.6-9.2 16.7-1.1-.4-1.5-1.6-2.2-2.5-.5-1.1-1.1-2-1.6-3.1.1-.5.7-.4 1-.7.3-.2.7-.3.9-.7.7-.4 1-1.1 1.5-1.8.1-.8.3-2.9 0-3.8 0-.1-.3-.3-.3-.4-.1-.2 0-.4-.1-.6 0-.1-.3-.1-.3-.1v-.3c-.4-.6-1.2-.9-1.6-1.3-1.7-.7-4-.3-5.4.4-1.5-2.9-3.1-5.7-4.4-8.8-.6-1.6-1.4-3-2-4.5-.3-.8-.8-1.4-1.2-2.2-.5-.6-.8-1.4-1.3-1.9-.6-1.5-1.6-2.8-2.5-4.1-.8-1.4-1.6-2.8-2.3-4.2-1.4-3-2.8-5.9-4.2-8.8 0-.6.8-.5 1-.9.4-.2.7-.5 1-.7 1-.7 1.7-1.7 2.6-2.5.8-1 1.4-2 2.5-2.6 2.7.4 4.3 1.8 7 2h1.8c3.1-.4 4.5-2.5 7.2-3.4 1.2-.1 1.7.5 2.6.7.8.3 1.6.6 2.3 1 1.6.3 3.7.1 5.6.1 1.7-.3 2.4-1.7 4.5-1.6 1.2.4 2 1.2 2.6 2.2.8.8 1.6 1.7 2.3 2.5.7.3 1.2.7 1.8 1 .7.1 1.1.4 2 .3.4.5.7 1 1 1.5.5.3 1.1.4 1.5.9-.7 4.5-2.4 7.9-4.1 11.3zm11.1-20.5c-.2 1.2-.9 2-1.5 2.9-1.2.8-1.9 2-3.8 2-.5.5.3.9 0 1.2-.6.2-.8.7-1.6.7-1.1-.3-1.4-1.4-2.2-2-.7-.2-1.1-.8-1.9-.9-.5-.4-1-.8-1.6-1.2-.6-.7-1.2-1.4-1.8-2-.5-.3-1-.7-1.5-1.2l-1.8-.9h-2.5c-.6.3-1.3.4-1.6.9-.6.2-1.1.5-1.6.7-.7.1-1.2-.2-1.6 0-.5.1-.1-.6-.4-.7 0-.3-.4-.3-.6-.4-.7 0-.6.7-.9 1-.6-.1-1-.4-.9-1.2.1-.4-.1-.5-.1-.9.1-.5-.4-.3-.4-.6-.6-.1-.5.4-.9.4 0 .4 0 .9-.4.9-.7-.1-.3-1.2-.4-1.9 0-.8.1-1.5-.6-1.6-1.4 0-.8 2.1-1.2 3.1-1.5-.3.3-3-.9-3.4-.8 0-1 .6-1 1.3-.3.1-.1.7-.1 1-.3 0-.1.6-.1.9-2.8.6-4.1 2.7-6.9 3.4h-2.2c-2.5-.4-4.2-1.9-7.3-1.5-.8.2-1.5.5-2 1-.8.7-1.6 1.4-2.2 2.3-.7-.3-.4-1.6-1.3-1.8-1.5.6.4 2.7-.4 3.5-1-.3-.3-2.4-1.6-2.3-.8 0-.6 1.1-.4 1.8 0 .6.7 1.2.3 1.8-1.1-.7-.3-3.4-1.5-4.1-.6 0-.6.6-.9.9-.1.8.1 1.3.1 1.9-.1.6.5 1.2.1 1.6-.5-.1-.4-.8-.6-1.2-.1-.4-.3-.8-.3-1.3-.5-.6.1-2.3-.9-2.5-.7-.1-.4.7-.7 1 0 1.1.1 1.9.3 2.8-.6-.4-.7-1.2-1-1.9-.3-.7-.4-1.5-.4-2.5 0-.7.3-1.1.4-1.8.3-.1.5-.3.6-.6.9-.3 2.2-.4 3.2-.1.3.4.8.6 1.2.9 1 0 2.3.2 2.5-.6.1-.9-.6-1.1-.7-1.8 1.2-1.3 2.5-2.4 4.5-2.8h2.8c1.1.2 1.9.6 2.8 1.2.5.3.9.8 1.6.7.8-.1 1-.8.9-1.8 1.3-.1 1.6-1.1 2.5-1.6.7-.6 1.6-1 2.5-1.5 2-.7 4.5-.8 7.3-.7C37.9 4.1 39.5 5 41 6c.7.6.8 1.8 2.3 1.6.7-.2 1.1-1 .7-1.8C45.9 4.4 48.7 4 52 4c1.5.2 3 .9 4.2 1.5.2.1.5.3.7.4.1.1.3.1.4.1.3.6.4.9.7 1 .4.3.6.4.9.7.1.1.2.4.4.6.2 1 0 2.4 1 2.6 1.7.1 1.6-1.4 1.9-2.6 2.4-.2 3.5 1.1 4.7 2.2.1.4.2.7.4 1v1.7zm-39.6 7.6c.2.1.3.4.4.6s.2.5.3.7c.2.4.6.7.9 1.2.1.2.1.5.3.7.1.2.3.4.4.6.3.4.5.9.9 1.2.2.1.5.2.7.3.3.1.4.4.7.3 1-.5 2.3-.8 2.9-1.6-.2-1.8-1.6-2.5-2.2-3.9-1-1-1.5-2.6-2.5-3.7-.5-.3-1.2-.1-1.8 0-.6.4-1.1 1-1.5 1.8.3.5.7.9.5 1.8zm2.2-2.1c.5.9 1 1.7 1.5 2.6s.9 1.8 1.6 2.5c-.1.4-.6.3-.7.7-.8-.6-1.1-1.8-1.9-2.5-.2-.5-.5-1-.9-1.3-.1-.6-.8-.7-.9-1.3.4-.1.6-.7 1.3-.7zm15.9 1.4c.2-.3.7-.3.7-.9-.5-.8-.9-1.7-2.3-1.6-.1.2-.1.5-.3.7.4.8.8 1.7 1.9 1.8zm-5.2-.8c-.6-.9-2.1-.2-2 .9.5.8 1.9.1 2-.9zM22 25.2c.4-.2.3-.8.6-1 .2-2.2-.5-3.4-1.5-4.4-.4 0-.5-.3-.7-.4-.2 0-.4 0-.4-.1h-1.3c-.7.4-1.3.9-1.3 1.9-.1.7.3 1.1.6 1.5.2.5.5 1 .7 1.5.6.9 1 1.8 2.5 1.8.2-.5.7-.5.8-.8zm-1.2-.9c-.7-.2-.9-.8-1.3-1.3-.2-.6-.8-.9-.7-1.8-.1-.4.3-.3.3-.6 1.6.1 2.5 2.2 1.7 3.7zm32.8-.6c-.7.6-1.4 1.3-1.3 2.6.3.2.6.5 1.2.6 1-.4 2-2.2 1-3.2h-.9zm-9.8 1.9c-1.1-.1-2.1.1-2.9.3-1 .2-1.5.7-2.3 1-.6.7-1.3 1.4-1.9 2.2-.3.9-.7 1.9-.4 2.9.3 0 .3.5.7.4.1.4.7.1.9.4.3.1 1.1-.2 1.2.1.3.1 1.1-.2 1.2.1-.7.9-1 3.2-.7 4.2.1.3.1.6.3.7.2.2.5.6.6.7.4.1.7.2.9.4h2.2c1.5-.8 2.4-2.4 2-4.7-.3-.2-.2-.8-.6-1 0-.3-.7-.8-.3-1 .9.1 1.8.2 2.9.1.7-.6.7-1.7.7-2.9-.3-2.3-2-3.5-4.5-3.9zm2.6 5.4c-.3.3-1.3 0-1.6.3-.7 0-.9.5-1.5.1 0 .4-.1.7-.3.9-.1.8.2 1.2.1 1.9.1.6.6.9.6 1.8-.2.9-.4 1.8-1.6 1.8 0-.2-.3-.1-.4-.1-1.1-1.7.2-4.2-.3-6.1-.4-.3-1.1-.3-1.8-.3-.5-.2-1.2-.2-1.8-.3.5-1.5 1.8-2.2 3.1-2.9 1-.2 2.2-.1 3.4-.1 0 .2.3.1.4.1l1.2.9c.2.6.6 1.1.5 2zM17 28.1c.2.7 1.9.9 2 0 .1-1.1-2-.9-2 0zm13.6 5.6c0-.1-.1-.1-.1-.3-.1-.5-.2-.6-.3-.9-.1-.2-.1-.4-.1-.6-.2-.1-.3-.2-.3-.4-.9-.7-1.7-1.5-3.1-1.8h-1c-.1 0-.2 0-.1.1-1.8.3-3.1 1.2-4.2 2.2-.4.8-.8 1.4-.9 2.5.1 2.8 1.6 4.2 3.7 5.1 1.7.4 3.7 0 5-.6 1-.9 1.7-3.2 1.4-5.3zm-2.5 3c-.3.2-.6.3-.9.6-.2 0-.4 0-.4.1-.7 0-1.4.1-1.9-.1-.6 0-.9-.4-1.5-.6-.2-.5-.3-1-.4-1.6.2-1 .7-1.8.9-2.8.5-.3 1.2-.5 1.9-.7.8.1 1.3.3 1.9.6.1.3.3.6.6.7.2.6.4 1.2.4 1.9 0 .8-.3 1.3-.6 1.9zM53 32c.2.6 1.2.9 1.8.4.1-.8-1.7-1.4-1.8-.4zm-26.3.6c-.2.2-.2 1 0 1.2h.6c.2-.2.2-1 0-1.2h-.6zm-1.9 1.2c0 .5.3.6.9.6.4-.6-.5-1.2-.9-.6zM27 36v-.7c-1.3-.7-1.2 1.3 0 .7zm23.7 4.4c1.1 0 1-1.7.4-2.2-1.5-.4-1.5 2.1-.4 2.2zM39.4 43c.1-.2.2-.4.4-.6 0-.8-.3-1.2-.6-1.6-1.2-.6-2 .5-1.6 1.6.6.3 1 .7 1.8.6zm-15.6-1c-.1-.4-.8-.6-1.2-.3 0 1 1.1 2 1.9 1.3 0-.5-.2-1-.7-1zm12.2.9c-.3-.1-.6-.1-.7-.3-1.1-.1-1.6.3-2.5.4-.2.4-.7.5-1 .9-.5.2-.6.8-1.2.9-.4-.7-1-1.2-1.9-1.3-.5 0-.7.3-1.2.3-.7.7-1 1.8-1.2 3.1.4 2.9 1.2 5.5 3.9 6.1.9.1 1.4-.2 1.8-.4 1-.6 1.9-1.6 1.9-2.9.1-.8-.4-1.1-.6-1.6 1.5-.6 3.1-1.2 3.5-2.9.2-1.3-.3-1.8-.8-2.3zm-2 3.3c-.7.2-1.6.2-2 .7 0 .5-.1 1.2.1 1.5.1.4.2.8.4 1.2-.3.6-.7 1.2-1.5 1.3-2.1-.4-3.5-2.9-2.6-5.4 1.2-.1 1.2.9 2.2 1 .6.1.6-.4.9-.6.3-.1.4-.5.7-.6.5-.5 1.1-.8 1.6-1.2.8 0 1.2-.3 1.6.3.1 1.2-1 1.2-1.4 1.8zm13.2 1.3c.3 0 .5 0 .6-.3-.2 0-.2-.2-.4-.3-.1.3-.3.3-.2.6zm-.3 1.1c-.2.2-.5.7-.1 1 .5.1.9-.1.9-.6-.3-.2-.4-.5-.8-.4zM39 50c-.3-.1-.4-.4-.9-.3-.6.5-1.6.6-1.6 1.8.3.4 1.3.4 1.5-.1.5-.2 1-.5 1-1.4zm1.3 2.2c-.9.8-1.7 1.4-1.9 2.8.3 1.1.8 1.9 1.3 2.8.1.6.6.8.7 1.3.4.3.5.9 1.2.9 1.2-.3 2-1.1 2.5-2.2 0-.4-.2-.5-.4-.6.1-.5-.1-.7-.1-1-.5-.6-1-1.3-1.5-2-.7-.7-.7-1.9-1.8-2zm1.7 6.2c-.3 0-.3-.4-.3-.7-.6-.9-1.4-1.5-2-2.3-.1-.7.3-.7.4-1.2.2.1.2.3.4.3.5 1.2 1.2 2.1 2 2.9.1.4-.4.5-.5 1zm-9.5.3c-.4 0-.7 0-.9.1 0 .3 0 .6.1.7.4 0 .7 0 .9-.1.2-.4-.1-.4-.1-.7zm1.1 2c-.1 0-.1.1-.3.1-.2.8.7 1.1 1.2.7-.1-.5-.4-.8-.9-.8zm1.9 4.7c.2.7 1 1.3 1.8.9.6-1-1.5-2.3-1.8-.9z" fill="#1fba0a"/></svg>