<svg xmlns="http://www.w3.org/2000/svg" viewBox="0 0 410 150"><path d="M404.4 96.1c-1.2-.2-2.4-.4-3.6-.5-9.7-1.3-19.5-1.8-28.9-3.9-16.3-3.6-30-13-43.8-21.9-26.6-17.3-52.6-35.7-81.5-49.1C219.2 8 190.8-.2 160.6.2c-16.7.2-33.5 1.2-50.1 3.2C90.9 5.7 72 10.8 55 21.2c-18.6 11.4-32 26.5-30.3 50 .5 6.5-1.7 9.6-6.3 13.1-6 4.6-11.4 10-17 15.1 8.4-2.2 16-5.1 23.6-8.3 2.9-1.2 4-.6 5.7 2.1 3.9 6.4 7.9 12.9 13 18.3 17.1 18.4 39.4 27.1 63.3 32.2 7.4 1.6 14.9 3.1 22.5 4 5.7 1.1 17.7 2.1 24.3 2.1 9.2 0 25.4-1.8 28.7-3.3 4.2-.9 8.4-1.8 12.6-2.8 13.9-3.5 26.8-8.9 37.8-18.4-3.7 1.1-7.1 2.5-10.7 3.7-26.5 9.3-54 10.5-81.7 9.3-21-.9-41.6-4.5-61.1-12.6C63.6 119.1 49.8 110 40.7 95c-1.4-2.4-2.5-5.1-3.8-7.8C79.8 73 123.2 68.1 167.4 70.4c44.1 2.2 86.3 13.2 126.8 31-16.4-19.1-36.4-33.2-59.5-42.5-69-27.9-136-22.5-201.4 13.9-1.8-15 2.4-27.1 13.2-36.8 9.5-8.6 20.9-14 33-17.7 22.8-7.1 46.3-10.1 70.2-11.2 22.8-1.1 44.9 1.6 66.7 8.1 31.1 9.3 57.6 27.3 84 45.3 19.5 13.3 38.9 26.6 61.2 35.1 13.5 5.2 27.5 7.4 41.9 7.7 1.7 0 4.4-1.4 5-2.8 1.1-3.1-1.5-4-4.1-4.4z" fill="#32505a"/></svg>