<svg version="1.1" id="Layer_1" xmlns="http://www.w3.org/2000/svg" x="0" y="0" viewBox="0 0 25 25" xml:space="preserve"><style>.st2{fill:#888}</style><linearGradient id="SVGID_1_" gradientUnits="userSpaceOnUse" x1="12.5" y1="24.5" x2="12.5" y2=".5"><stop offset="0" stop-color="#d9d9d9"/><stop offset="1" stop-color="#fafafa"/></linearGradient><path d="M3 24.5C1.6 24.5.5 23.4.5 22V3C.5 1.6 1.6.5 3 .5h19c1.4 0 2.5 1.1 2.5 2.5v19c0 1.4-1.1 2.5-2.5 2.5H3z" fill="url(#SVGID_1_)"/><path d="M22 1c1.1 0 2 .9 2 2v19c0 1.1-.9 2-2 2H3c-1.1 0-2-.9-2-2V3c0-1.1.9-2 2-2h19m0-1H3C1.3 0 0 1.3 0 3v19c0 1.7 1.3 3 3 3h19c1.7 0 3-1.3 3-3V3c0-1.7-1.3-3-3-3z" fill="#e6e6e6"/><path transform="rotate(-45.001 11.437 12.5)" class="st2" d="M10.9 10.5h1v4h-1z"/><path transform="rotate(-45.001 13.562 12.5)" class="st2" d="M11.6 12h4v1h-4z"/></svg>