<svg xmlns="http://www.w3.org/2000/svg" viewBox="0 0 32 32"><path d="M14.5 22c4.1 0 7.5-4.1 7.5-9.1s-3.4-9.1-7.5-9.1c-2 0-4 1-5.4 2.8C7.8 8.2 7 10.5 7 12.9c0 5 3.4 9.1 7.5 9.1zm0-16.2c3 0 5.5 3.2 5.5 7.1 0 3.9-2.5 7.1-5.5 7.1S9 16.8 9 12.9c0-4 2.5-7.1 5.5-7.1zM20.8 21c-.6 0-1 .4-1 1s.4 1 1 1c3.4 0 6.2 2.8 6.2 6.2 0 .4-.4.8-.8.8H2.8c-.4 0-.8-.4-.8-.8C2 25.8 4.8 23 8.2 23c.6 0 1-.4 1-1s-.4-1-1-1C3.7 21 0 24.7 0 29.2 0 30.7 1.3 32 2.8 32h23.4c1.5 0 2.8-1.3 2.8-2.8 0-4.5-3.7-8.2-8.2-8.2zM15.2 2.6c.7-.4 1.5-.6 2.3-.6 3 0 5.5 3.2 5.5 7.1 0 .7-.1 1.4-.2 2.1-.1.5.2 1.1.7 1.2h.2c.5 0 .9-.3 1-.8.2-.8.3-1.6.3-2.5 0-5-3.4-9.1-7.5-9.1-1.1 0-2.3.3-3.3.9-.5.3-.6.9-.4 1.4s1 .6 1.4.3zM24 17c-.6 0-1 .4-1 1s.4 1 1 1c3.4 0 6 2.9 6 6.3 0 .1 0 .2-.1.3-.2.5 0 1.1.5 1.3.1.1.3.1.4.1.4 0 .7-.2.9-.6.2-.4.2-.7.2-1.1.1-4.6-3.4-8.3-7.9-8.3z" fill="#1fba0a"/></svg>