<svg xmlns="http://www.w3.org/2000/svg" viewBox="0 0 23 23"><path d="M11.5 0C5.1 0 0 5.1 0 11.5S5.1 23 11.5 23 23 17.9 23 11.5 17.9 0 11.5 0zM18 15.8h-2c-.5.1-.9-.2-1.3-.5-.3-.3-.6-.6-.8-.9-.1-.1-.2-.3-.4-.3-.3-.2-.5-.1-.7.2-.2.3-.2.6-.2 1 0 .5-.2.6-.7.6-1 .1-2-.1-2.9-.6-.8-.5-1.4-1.1-1.9-1.8-1-1.4-1.8-3-2.6-4.6-.1-.5 0-.7.4-.7h2c.3 0 .5.2.6.4.4.9.8 1.7 1.3 2.5.2.2.3.4.5.6.3.2.4.1.5-.2.1-.2.1-.4.1-.5.1-.6.1-1.2 0-1.9-.1-.3-.3-.6-.7-.7-.2 0-.2-.1-.1-.2.2-.2.4-.3.7-.3h2.3c.4.1.5.3.5.6v2.6c0 .2.1.6.3.7.2.1.4-.1.5-.2.6-.6.9-1.3 1.3-2 .2-.3.3-.7.4-1 .1-.3.3-.4.5-.4H18c.4.1.5.2.4.6-.2.6-.5 1-.9 1.5s-.8 1-1.1 1.5c-.3.4-.3.7.2 1.1.5.5 1 .9 1.4 1.4.2.2.4.5.5.7.1.4-.2.8-.5.8z" fill="#fff"/></svg>